# xmcd
#
# Track frame offsets:
#	150
#	15670
#	33405
#	50565
#	68935
#	79035
#	96480
#	110572
#	127157
#	146517
#	160762
#
# Disc length: 2371 seconds
#
# Revision: 3
# Processed by: cddbd v1.4PL0 Copyright (c) Steve Scherf et al.
# Submitted via: EasyCDDAExtractor 5.0.7
#
DISCID=9809410b
DTITLE=Collin Raye - I Think About You
DYEAR=1995
DGENRE=Country
TTITLE0=I Think About You
TTITLE1=Not That Different
TTITLE2=On The Verge
TTITLE3=One Boy, One Girl
TTITLE4=Sweet Miss Behavin'
TTITLE5=Heart Full of Rain
TTITLE6=What If Jesus Comes Back Like That
TTITLE7=The Time Machine
TTITLE8=I Love Being Wrong
TTITLE9=I Volunteer
TTITLE10=Love Remains
EXTD=
EXTT0=
EXTT1=
EXTT2=
EXTT3=
EXTT4=
EXTT5=
EXTT6=
EXTT7=
EXTT8=
EXTT9=
EXTT10=
PLAYORDER=
